<svg width="59" height="59" viewBox="0 0 59 59" fill="none" xmlns="http://www.w3.org/2000/svg">
<g clip-path="url(#clip0_512_98)">
<path d="M12.2069 4.06897C9.95967 1.82174 6.3162 1.82175 4.06897 4.06897C1.82174 6.3162 1.82174 9.95968 4.06897 12.2069L46.7931 54.931C49.0403 57.1783 52.6838 57.1783 54.931 54.931C57.1783 52.6838 57.1783 49.0403 54.931 46.7931L12.2069 4.06897Z" fill="black"/>
<path d="M4.06896 46.7931C1.82174 49.0403 1.82174 52.6838 4.06897 54.931C6.31619 57.1783 9.95967 57.1783 12.2069 54.9311L54.931 12.2069C57.1783 9.95969 57.1783 6.31621 54.931 4.06898C52.6838 1.82176 49.0403 1.82175 46.7931 4.06898L4.06896 46.7931Z" fill="black"/>
</g>
<defs>
<clipPath id="clip0_512_98">
<rect width="59" height="59" fill="white"/>
</clipPath>
</defs>
</svg>
