<svg width="250" height="156" viewBox="0 0 250 156" fill="none" xmlns="http://www.w3.org/2000/svg">
<path fill-rule="evenodd" clip-rule="evenodd" d="M202.533 78C202.533 90.9855 199.36 103.23 193.747 114C199.36 124.77 202.533 137.014 202.533 150C202.533 151.394 202.497 152.778 202.424 154.154C202.37 155.196 201.499 156 200.456 156C199.291 156 198.376 155.006 198.435 153.842C198.5 152.57 198.533 151.289 198.533 150C198.533 138.624 195.966 127.847 191.379 118.217C177.728 140.859 152.899 156 124.533 156C96.1674 156 71.3382 140.859 57.687 118.217C53.1003 127.847 50.5331 138.624 50.5331 150C50.5331 151.289 50.5661 152.57 50.6312 153.842C50.6907 155.006 49.7756 156 48.6103 156C47.5667 156 46.6965 155.196 46.6418 154.154C46.6304 153.936 46.6199 153.718 46.6103 153.5C46.559 152.34 46.5331 151.173 46.5331 150C46.5331 137.014 49.7064 124.77 55.3197 114C49.7064 103.23 46.5331 90.9855 46.5331 78C46.5331 34.9218 81.4549 0 124.533 0C167.611 0 202.533 34.9218 202.533 78ZM124.533 152C152.334 152 176.555 136.669 189.201 114C176.555 91.3311 152.334 76 124.533 76C96.7319 76 72.5114 91.3311 59.8649 114C72.5114 136.669 96.7319 152 124.533 152ZM124.533 72C152.899 72 177.728 87.1415 191.379 109.783C195.966 100.153 198.533 89.3765 198.533 78C198.533 37.1309 165.402 4 124.533 4C83.6641 4 50.5331 37.1309 50.5331 78C50.5331 89.3765 53.1003 100.153 57.687 109.783C71.3382 87.1415 96.1674 72 124.533 72Z" fill="black"/>
<path fill-rule="evenodd" clip-rule="evenodd" d="M224.07 94.6366C224.823 93.8284 226.088 93.7838 226.897 94.5368L248.111 114.305C249.385 115.491 249.385 117.509 248.111 118.695L226.897 138.463C226.088 139.216 224.823 139.172 224.07 138.363C223.317 137.555 223.362 136.29 224.17 135.537L244.599 116.5L224.17 97.4632C223.362 96.7102 223.317 95.4447 224.07 94.6366Z" fill="black"/>
<path fill-rule="evenodd" clip-rule="evenodd" d="M24.9964 94.6366C25.7494 95.4447 25.7047 96.7102 24.8966 97.4632L4.46687 116.5L24.8966 135.537C25.7047 136.29 25.7494 137.555 24.9964 138.363C24.2433 139.172 22.9778 139.216 22.1697 138.463L0.954824 118.695C-0.318277 117.509 -0.318271 115.491 0.954821 114.305L22.1697 94.5368C22.9778 93.7838 24.2433 93.8284 24.9964 94.6366Z" fill="black"/>
<path fill-rule="evenodd" clip-rule="evenodd" d="M99.4249 116.509C100.756 112.243 104.677 109.307 109.095 109.35C113.443 109.393 117.267 112.31 118.575 116.509C118.846 117.379 118.361 118.304 117.491 118.575C116.621 118.846 115.696 118.361 115.425 117.491C114.528 114.614 111.932 112.679 109.063 112.65M109.063 112.65C106.15 112.622 103.487 114.567 102.575 117.491C102.304 118.361 101.378 118.847 100.509 118.575C99.6386 118.304 99.1535 117.378 99.4249 116.509" fill="black"/>
<path fill-rule="evenodd" clip-rule="evenodd" d="M148.226 117.159C146.895 112.893 142.974 109.957 138.555 110C134.207 110.043 130.384 112.96 129.075 117.159C128.804 118.029 129.29 118.954 130.16 119.225C131.03 119.496 131.955 119.011 132.226 118.141C133.122 115.264 135.718 113.329 138.587 113.3M138.587 113.3C141.5 113.272 144.163 115.217 145.075 118.141C145.347 119.011 146.272 119.497 147.142 119.225C148.012 118.954 148.497 118.028 148.226 117.159" fill="black"/>
</svg>
