<svg width="250" height="156" viewBox="0 0 250 156" fill="none" xmlns="http://www.w3.org/2000/svg">
<path d="M193.77 113.769L193.65 114L193.77 114.231C199.347 124.932 202.5 137.097 202.5 150C202.5 151.385 202.464 152.761 202.392 154.128C202.352 154.897 201.708 155.5 200.923 155.5C200.053 155.5 199.356 154.755 199.401 153.868C199.467 152.587 199.5 151.297 199.5 150C199.5 138.548 196.916 127.697 192.298 118.002L191.898 117.163L191.418 117.959C177.853 140.457 153.183 155.5 125 155.5C96.8167 155.5 72.1465 140.457 58.5821 117.959L58.1021 117.163L57.7025 118.002C53.0845 127.697 50.5 138.548 50.5 150C50.5 151.297 50.5332 152.587 50.5987 153.868C50.6441 154.755 49.9468 155.5 49.0772 155.5C48.292 155.5 47.6484 154.897 47.608 154.128C47.5967 153.911 47.5862 153.695 47.5766 153.478C47.5257 152.325 47.5 151.166 47.5 150C47.5 137.097 50.6529 124.932 56.2299 114.231L56.3504 114L56.2299 113.769C50.6529 103.068 47.5 90.9032 47.5 78C47.5 35.1979 82.1979 0.5 125 0.5C167.802 0.5 202.5 35.1979 202.5 78C202.5 90.9032 199.347 103.068 193.77 113.769ZM190.105 114.244L190.241 114L190.105 113.756C177.374 90.9356 152.99 75.5 125 75.5C97.0103 75.5 72.6264 90.9356 59.8951 113.756L59.7592 114L59.8951 114.244C72.6264 137.064 97.0103 152.5 125 152.5C152.99 152.5 177.374 137.064 190.105 114.244ZM191.418 110.041L191.898 110.837L192.298 109.998C196.916 100.303 199.5 89.4524 199.5 78C199.5 36.8548 166.145 3.5 125 3.5C83.8548 3.5 50.5 36.8548 50.5 78C50.5 89.4524 53.0845 100.303 57.7025 109.998L58.1021 110.837L58.5821 110.041C72.1465 87.5435 96.8167 72.5 125 72.5C153.183 72.5 177.853 87.5435 191.418 110.041ZM128.51 114C128.51 115.933 126.943 117.5 125.01 117.5C123.077 117.5 121.51 115.933 121.51 114C121.51 112.067 123.077 110.5 125.01 110.5C126.943 110.5 128.51 112.067 128.51 114Z" fill="black" stroke="black"/>
<path d="M226 96L247.215 115.768C247.639 116.164 247.639 116.836 247.215 117.232L226 137" stroke="black" stroke-width="4" stroke-linecap="round"/>
<path d="M24 96L2.78514 115.768C2.36077 116.164 2.36077 116.836 2.78514 117.232L24 137" stroke="black" stroke-width="4" stroke-linecap="round"/>
</svg>
