<svg width="100" height="100" viewBox="0 0 100 100" fill="none" xmlns="http://www.w3.org/2000/svg">
<g clip-path="url(#clip0_503_32)">
<path fill-rule="evenodd" clip-rule="evenodd" d="M91.4477 56.0726C85.5151 63.9252 76.1002 69 65.5 69C47.5507 69 33 54.4493 33 36.5C33 21.5647 43.0744 8.98241 56.7984 5.178C55.5481 5.06023 54.2811 5 53 5C30.9086 5 13 22.9086 13 45C13 67.0914 30.9086 85 53 85C71.25 85 86.6454 72.778 91.4477 56.0726Z" fill="url(#paint0_linear_503_32)"/>
<g clip-path="url(#clip1_503_32)">
<path d="M12.9917 10.7903C12.9589 10.6993 12.8659 10.6394 12.7238 10.6108L9.27943 10.1452L7.75955 7.22633C7.68028 7.07544 7.5846 7 7.49166 7C7.31671 7 7.20736 7.19511 7.19096 7.22633L5.69022 10.1426L2.29235 10.6082C2.19668 10.6238 2.04086 10.6681 2.00806 10.7877C1.97526 10.8918 2.02446 10.9984 2.16661 11.1337L4.58311 13.3736L4.01452 16.5604C3.98172 16.7112 3.99812 16.8153 4.06099 16.8907C4.10746 16.935 4.21954 16.9948 4.42456 16.922L7.47526 15.4027L10.556 16.9376C10.6353 16.9818 10.7146 16.9974 10.7774 16.9974C10.8567 16.9974 10.9032 16.9662 10.936 16.9376C10.9989 16.8777 10.9989 16.7711 10.9825 16.6982L10.3811 13.3892L12.8604 11.0895C12.9069 11.0583 13.0354 10.9386 12.9862 10.7877L12.9917 10.7903Z" fill="url(#paint1_linear_503_32)"/>
</g>
<g clip-path="url(#clip2_503_32)">
<path d="M76.9917 13.7903C76.9589 13.6993 76.8659 13.6394 76.7238 13.6108L73.2794 13.1452L71.7596 10.2263C71.6803 10.0754 71.5846 10 71.4917 10C71.3167 10 71.2074 10.1951 71.191 10.2263L69.6902 13.1426L66.2924 13.6082C66.1967 13.6238 66.0409 13.6681 66.0081 13.7877C65.9753 13.8918 66.0245 13.9984 66.1666 14.1337L68.5831 16.3736L68.0145 19.5604C67.9817 19.7112 67.9981 19.8153 68.061 19.8907C68.1075 19.935 68.2195 19.9948 68.4246 19.922L71.4753 18.4027L74.556 19.9376C74.6353 19.9818 74.7146 19.9974 74.7774 19.9974C74.8567 19.9974 74.9032 19.9662 74.936 19.9376C74.9989 19.8777 74.9989 19.7711 74.9825 19.6982L74.3811 16.3892L76.8604 14.0895C76.9069 14.0583 77.0354 13.9386 76.9862 13.7877L76.9917 13.7903Z" fill="url(#paint2_linear_503_32)"/>
</g>
<g clip-path="url(#clip3_503_32)">
<path d="M62.9917 43.7903C62.9589 43.6993 62.8659 43.6394 62.7238 43.6108L59.2794 43.1452L57.7595 40.2263C57.6803 40.0754 57.5846 40 57.4917 40C57.3167 40 57.2074 40.1951 57.191 40.2263L55.6902 43.1426L52.2924 43.6082C52.1967 43.6238 52.0409 43.6681 52.0081 43.7877C51.9753 43.8918 52.0245 43.9984 52.1666 44.1337L54.5831 46.3736L54.0145 49.5604C53.9817 49.7112 53.9981 49.8153 54.061 49.8907C54.1075 49.935 54.2195 49.9948 54.4246 49.922L57.4753 48.4027L60.556 49.9376C60.6353 49.9818 60.7146 49.9974 60.7774 49.9974C60.8567 49.9974 60.9032 49.9662 60.936 49.9376C60.9989 49.8777 60.9989 49.7711 60.9825 49.6982L60.3811 46.3892L62.8604 44.0895C62.9069 44.0583 63.0354 43.9386 62.9862 43.7877L62.9917 43.7903Z" fill="url(#paint3_linear_503_32)"/>
</g>
<g clip-path="url(#clip4_503_32)">
<path d="M98.9917 37.7903C98.9589 37.6993 98.8659 37.6394 98.7238 37.6108L95.2794 37.1452L93.7596 34.2263C93.6803 34.0754 93.5846 34 93.4917 34C93.3167 34 93.2074 34.1951 93.191 34.2263L91.6902 37.1426L88.2924 37.6082C88.1967 37.6238 88.0409 37.6681 88.0081 37.7877C87.9753 37.8918 88.0245 37.9984 88.1666 38.1337L90.5831 40.3736L90.0145 43.5604C89.9817 43.7112 89.9981 43.8153 90.061 43.8907C90.1075 43.935 90.2195 43.9948 90.4246 43.922L93.4753 42.4027L96.556 43.9376C96.6353 43.9818 96.7146 43.9974 96.7774 43.9974C96.8567 43.9974 96.9032 43.9662 96.936 43.9376C96.9989 43.8777 96.9989 43.7711 96.9825 43.6982L96.3811 40.3892L98.8604 38.0895C98.9069 38.0583 99.0354 37.9386 98.9862 37.7877L98.9917 37.7903Z" fill="url(#paint4_linear_503_32)"/>
</g>
<g clip-path="url(#clip5_503_32)">
<path d="M0.991658 49.7903C0.958855 49.6993 0.865912 49.6394 0.723765 49.6108L-2.72057 49.1452L-4.24045 46.2263C-4.31972 46.0754 -4.4154 46 -4.50834 46C-4.68329 46 -4.79264 46.1951 -4.80904 46.2263L-6.30978 49.1426L-9.70765 49.6082C-9.80332 49.6238 -9.95914 49.6681 -9.99194 49.7877C-10.0247 49.8918 -9.97554 49.9984 -9.83339 50.1337L-7.41689 52.3736L-7.98548 55.5604C-8.01828 55.7112 -8.00188 55.8153 -7.93901 55.8907C-7.89254 55.935 -7.78046 55.9948 -7.57544 55.922L-4.52474 54.4027L-1.44398 55.9376C-1.3647 55.9818 -1.28543 55.9974 -1.22256 55.9974C-1.14328 55.9974 -1.09681 55.9662 -1.06401 55.9376C-1.00114 55.8777 -1.00113 55.7711 -1.01754 55.6982L-1.61893 52.3892L0.860445 50.0895C0.906916 50.0583 1.0354 49.9386 0.986191 49.7877L0.991658 49.7903Z" fill="url(#paint5_linear_503_32)"/>
</g>
<g clip-path="url(#clip6_503_32)">
<path d="M23.9917 86.7903C23.9589 86.6993 23.8659 86.6394 23.7238 86.6108L20.2794 86.1452L18.7596 83.2263C18.6803 83.0754 18.5846 83 18.4917 83C18.3167 83 18.2074 83.1951 18.191 83.2263L16.6902 86.1426L13.2924 86.6082C13.1967 86.6238 13.0409 86.6681 13.0081 86.7877C12.9753 86.8918 13.0245 86.9984 13.1666 87.1337L15.5831 89.3736L15.0145 92.5604C14.9817 92.7112 14.9981 92.8153 15.061 92.8907C15.1075 92.935 15.2195 92.9948 15.4246 92.922L18.4753 91.4027L21.556 92.9376C21.6353 92.9818 21.7146 92.9974 21.7774 92.9974C21.8567 92.9974 21.9032 92.9662 21.936 92.9376C21.9989 92.8777 21.9989 92.7711 21.9825 92.6982L21.3811 89.3892L23.8604 87.0895C23.9069 87.0583 24.0354 86.9386 23.9862 86.7877L23.9917 86.7903Z" fill="url(#paint6_linear_503_32)"/>
</g>
<g clip-path="url(#clip7_503_32)">
<path d="M89.9917 88.7903C89.9589 88.6993 89.8659 88.6394 89.7238 88.6108L86.2794 88.1452L84.7596 85.2263C84.6803 85.0754 84.5846 85 84.4917 85C84.3167 85 84.2074 85.1951 84.191 85.2263L82.6902 88.1426L79.2924 88.6082C79.1967 88.6238 79.0409 88.6681 79.0081 88.7877C78.9753 88.8918 79.0245 88.9984 79.1666 89.1337L81.5831 91.3736L81.0145 94.5604C80.9817 94.7112 80.9981 94.8153 81.061 94.8907C81.1075 94.935 81.2195 94.9948 81.4246 94.922L84.4753 93.4027L87.556 94.9376C87.6353 94.9818 87.7146 94.9974 87.7774 94.9974C87.8567 94.9974 87.9032 94.9662 87.936 94.9376C87.9989 94.8777 87.9989 94.7711 87.9825 94.6982L87.3811 91.3892L89.8604 89.0895C89.9069 89.0583 90.0354 88.9386 89.9862 88.7877L89.9917 88.7903Z" fill="url(#paint7_linear_503_32)"/>
</g>
</g>
<defs>
<linearGradient id="paint0_linear_503_32" x1="30" y1="11" x2="76.5" y2="85" gradientUnits="userSpaceOnUse">
<stop stop-color="#FFF06B"/>
<stop offset="1" stop-color="#FFA236"/>
</linearGradient>
<linearGradient id="paint1_linear_503_32" x1="4.38183" y1="7.7498" x2="9.88123" y2="17.5688" gradientUnits="userSpaceOnUse">
<stop stop-color="#FFF06B"/>
<stop offset="1" stop-color="#FFA236"/>
</linearGradient>
<linearGradient id="paint2_linear_503_32" x1="68.3818" y1="10.7498" x2="73.8812" y2="20.5688" gradientUnits="userSpaceOnUse">
<stop stop-color="#FFF06B"/>
<stop offset="1" stop-color="#FFA236"/>
</linearGradient>
<linearGradient id="paint3_linear_503_32" x1="54.3818" y1="40.7498" x2="59.8812" y2="50.5688" gradientUnits="userSpaceOnUse">
<stop stop-color="#FFF06B"/>
<stop offset="1" stop-color="#FFA236"/>
</linearGradient>
<linearGradient id="paint4_linear_503_32" x1="90.3818" y1="34.7498" x2="95.8812" y2="44.5688" gradientUnits="userSpaceOnUse">
<stop stop-color="#FFF06B"/>
<stop offset="1" stop-color="#FFA236"/>
</linearGradient>
<linearGradient id="paint5_linear_503_32" x1="-7.61817" y1="46.7498" x2="-2.11877" y2="56.5688" gradientUnits="userSpaceOnUse">
<stop stop-color="#FFF06B"/>
<stop offset="1" stop-color="#FFA236"/>
</linearGradient>
<linearGradient id="paint6_linear_503_32" x1="15.3818" y1="83.7498" x2="20.8812" y2="93.5688" gradientUnits="userSpaceOnUse">
<stop stop-color="#FFF06B"/>
<stop offset="1" stop-color="#FFA236"/>
</linearGradient>
<linearGradient id="paint7_linear_503_32" x1="81.3818" y1="85.7498" x2="86.8812" y2="95.5688" gradientUnits="userSpaceOnUse">
<stop stop-color="#FFF06B"/>
<stop offset="1" stop-color="#FFA236"/>
</linearGradient>
<clipPath id="clip0_503_32">
<rect width="100" height="100" fill="white"/>
</clipPath>
<clipPath id="clip1_503_32">
<rect width="11" height="10" fill="white" transform="translate(2 7)"/>
</clipPath>
<clipPath id="clip2_503_32">
<rect width="11" height="10" fill="white" transform="translate(66 10)"/>
</clipPath>
<clipPath id="clip3_503_32">
<rect width="11" height="10" fill="white" transform="translate(52 40)"/>
</clipPath>
<clipPath id="clip4_503_32">
<rect width="11" height="10" fill="white" transform="translate(88 34)"/>
</clipPath>
<clipPath id="clip5_503_32">
<rect width="11" height="10" fill="white" transform="translate(-10 46)"/>
</clipPath>
<clipPath id="clip6_503_32">
<rect width="11" height="10" fill="white" transform="translate(13 83)"/>
</clipPath>
<clipPath id="clip7_503_32">
<rect width="11" height="10" fill="white" transform="translate(79 85)"/>
</clipPath>
</defs>
</svg>
