<svg width="100" height="100" viewBox="0 0 100 100" fill="none" xmlns="http://www.w3.org/2000/svg">
<g clip-path="url(#clip0_503_32)">
<path fill-rule="evenodd" clip-rule="evenodd" d="M91.4477 58.0726C85.5151 65.9252 76.1002 71 65.5 71C47.5507 71 33 56.4493 33 38.5C33 23.5647 43.0744 10.9824 56.7984 7.178C55.5481 7.06023 54.2811 7 53 7C30.9086 7 13 24.9086 13 47C13 69.0914 30.9086 87 53 87C71.25 87 86.6454 74.778 91.4477 58.0726Z" fill="url(#paint0_linear_503_32)"/>
<g clip-path="url(#clip1_503_32)">
<path d="M18.9917 10.7903C18.9589 10.6993 18.8659 10.6394 18.7238 10.6108L15.2794 10.1452L13.7596 7.22633C13.6803 7.07544 13.5846 7 13.4917 7C13.3167 7 13.2074 7.19511 13.191 7.22633L11.6902 10.1426L8.29235 10.6082C8.19668 10.6238 8.04086 10.6681 8.00806 10.7877C7.97526 10.8918 8.02446 10.9984 8.16661 11.1337L10.5831 13.3736L10.0145 16.5604C9.98172 16.7112 9.99812 16.8153 10.061 16.8907C10.1075 16.935 10.2195 16.9948 10.4246 16.922L13.4753 15.4027L16.556 16.9376C16.6353 16.9818 16.7146 16.9974 16.7774 16.9974C16.8567 16.9974 16.9032 16.9662 16.936 16.9376C16.9989 16.8777 16.9989 16.7711 16.9825 16.6982L16.3811 13.3892L18.8604 11.0895C18.9069 11.0583 19.0354 10.9386 18.9862 10.7877L18.9917 10.7903Z" fill="url(#paint1_linear_503_32)"/>
</g>
<g clip-path="url(#clip2_503_32)">
<path d="M76.9917 15.7903C76.9589 15.6993 76.8659 15.6394 76.7238 15.6108L73.2794 15.1452L71.7596 12.2263C71.6803 12.0754 71.5846 12 71.4917 12C71.3167 12 71.2074 12.1951 71.191 12.2263L69.6902 15.1426L66.2924 15.6082C66.1967 15.6238 66.0409 15.6681 66.0081 15.7877C65.9753 15.8918 66.0245 15.9984 66.1666 16.1337L68.5831 18.3736L68.0145 21.5604C67.9817 21.7112 67.9981 21.8153 68.061 21.8907C68.1075 21.935 68.2195 21.9948 68.4246 21.922L71.4753 20.4027L74.556 21.9376C74.6353 21.9818 74.7146 21.9974 74.7774 21.9974C74.8567 21.9974 74.9032 21.9662 74.936 21.9376C74.9989 21.8777 74.9989 21.7711 74.9825 21.6982L74.3811 18.3892L76.8604 16.0895C76.9069 16.0583 77.0354 15.9386 76.9862 15.7877L76.9917 15.7903Z" fill="url(#paint2_linear_503_32)"/>
</g>
<g clip-path="url(#clip3_503_32)">
<path d="M62.9917 45.7903C62.9589 45.6993 62.8659 45.6394 62.7238 45.6108L59.2794 45.1452L57.7595 42.2263C57.6803 42.0754 57.5846 42 57.4917 42C57.3167 42 57.2074 42.1951 57.191 42.2263L55.6902 45.1426L52.2924 45.6082C52.1967 45.6238 52.0409 45.6681 52.0081 45.7877C51.9753 45.8918 52.0245 45.9984 52.1666 46.1337L54.5831 48.3736L54.0145 51.5604C53.9817 51.7112 53.9981 51.8153 54.061 51.8907C54.1075 51.935 54.2195 51.9948 54.4246 51.922L57.4753 50.4027L60.556 51.9376C60.6353 51.9818 60.7146 51.9974 60.7774 51.9974C60.8567 51.9974 60.9032 51.9662 60.936 51.9376C60.9989 51.8777 60.9989 51.7711 60.9825 51.6982L60.3811 48.3892L62.8604 46.0895C62.9069 46.0583 63.0354 45.9386 62.9862 45.7877L62.9917 45.7903Z" fill="url(#paint3_linear_503_32)"/>
</g>
<g clip-path="url(#clip4_503_32)">
<path d="M98.9917 39.7903C98.9589 39.6993 98.8659 39.6394 98.7238 39.6108L95.2794 39.1452L93.7596 36.2263C93.6803 36.0754 93.5846 36 93.4917 36C93.3167 36 93.2074 36.1951 93.191 36.2263L91.6902 39.1426L88.2924 39.6082C88.1967 39.6238 88.0409 39.6681 88.0081 39.7877C87.9753 39.8918 88.0245 39.9984 88.1666 40.1337L90.5831 42.3736L90.0145 45.5604C89.9817 45.7112 89.9981 45.8153 90.061 45.8907C90.1075 45.935 90.2195 45.9948 90.4246 45.922L93.4753 44.4027L96.556 45.9376C96.6353 45.9818 96.7146 45.9974 96.7774 45.9974C96.8567 45.9974 96.9032 45.9662 96.936 45.9376C96.9989 45.8777 96.9989 45.7711 96.9825 45.6982L96.3811 42.3892L98.8604 40.0895C98.9069 40.0583 99.0354 39.9386 98.9862 39.7877L98.9917 39.7903Z" fill="url(#paint4_linear_503_32)"/>
</g>
<g clip-path="url(#clip5_503_32)">
<path d="M0.991658 51.7903C0.958855 51.6993 0.865912 51.6394 0.723765 51.6108L-2.72057 51.1452L-4.24045 48.2263C-4.31972 48.0754 -4.4154 48 -4.50834 48C-4.68329 48 -4.79264 48.1951 -4.80904 48.2263L-6.30978 51.1426L-9.70765 51.6082C-9.80332 51.6238 -9.95914 51.6681 -9.99194 51.7877C-10.0247 51.8918 -9.97554 51.9984 -9.83339 52.1337L-7.41689 54.3736L-7.98548 57.5604C-8.01828 57.7112 -8.00188 57.8153 -7.93901 57.8907C-7.89254 57.935 -7.78046 57.9948 -7.57544 57.922L-4.52474 56.4027L-1.44398 57.9376C-1.3647 57.9818 -1.28543 57.9974 -1.22256 57.9974C-1.14328 57.9974 -1.09681 57.9662 -1.06401 57.9376C-1.00114 57.8777 -1.00113 57.7711 -1.01754 57.6982L-1.61893 54.3892L0.860445 52.0895C0.906916 52.0583 1.0354 51.9386 0.986191 51.7877L0.991658 51.7903Z" fill="url(#paint5_linear_503_32)"/>
</g>
<g clip-path="url(#clip6_503_32)">
<path d="M23.9917 88.7903C23.9589 88.6993 23.8659 88.6394 23.7238 88.6108L20.2794 88.1452L18.7596 85.2263C18.6803 85.0754 18.5846 85 18.4917 85C18.3167 85 18.2074 85.1951 18.191 85.2263L16.6902 88.1426L13.2924 88.6082C13.1967 88.6238 13.0409 88.6681 13.0081 88.7877C12.9753 88.8918 13.0245 88.9984 13.1666 89.1337L15.5831 91.3736L15.0145 94.5604C14.9817 94.7112 14.9981 94.8153 15.061 94.8907C15.1075 94.935 15.2195 94.9948 15.4246 94.922L18.4753 93.4027L21.556 94.9376C21.6353 94.9818 21.7146 94.9974 21.7774 94.9974C21.8567 94.9974 21.9032 94.9662 21.936 94.9376C21.9989 94.8777 21.9989 94.7711 21.9825 94.6982L21.3811 91.3892L23.8604 89.0895C23.9069 89.0583 24.0354 88.9386 23.9862 88.7877L23.9917 88.7903Z" fill="url(#paint6_linear_503_32)"/>
</g>
<g clip-path="url(#clip7_503_32)">
<path d="M89.9917 90.7903C89.9589 90.6993 89.8659 90.6394 89.7238 90.6108L86.2794 90.1452L84.7596 87.2263C84.6803 87.0754 84.5846 87 84.4917 87C84.3167 87 84.2074 87.1951 84.191 87.2263L82.6902 90.1426L79.2924 90.6082C79.1967 90.6238 79.0409 90.6681 79.0081 90.7877C78.9753 90.8918 79.0245 90.9984 79.1666 91.1337L81.5831 93.3736L81.0145 96.5604C80.9817 96.7112 80.9981 96.8153 81.061 96.8907C81.1075 96.935 81.2195 96.9948 81.4246 96.922L84.4753 95.4027L87.556 96.9376C87.6353 96.9818 87.7146 96.9974 87.7774 96.9974C87.8567 96.9974 87.9032 96.9662 87.936 96.9376C87.9989 96.8777 87.9989 96.7711 87.9825 96.6982L87.3811 93.3892L89.8604 91.0895C89.9069 91.0583 90.0354 90.9386 89.9862 90.7877L89.9917 90.7903Z" fill="url(#paint7_linear_503_32)"/>
</g>
</g>
<defs>
<linearGradient id="paint0_linear_503_32" x1="30" y1="13" x2="76.5" y2="87" gradientUnits="userSpaceOnUse">
<stop stop-color="#FFF06B"/>
<stop offset="1" stop-color="#FFA236"/>
</linearGradient>
<linearGradient id="paint1_linear_503_32" x1="10.3818" y1="7.7498" x2="15.8812" y2="17.5688" gradientUnits="userSpaceOnUse">
<stop stop-color="#FFF06B"/>
<stop offset="1" stop-color="#FFA236"/>
</linearGradient>
<linearGradient id="paint2_linear_503_32" x1="68.3818" y1="12.7498" x2="73.8812" y2="22.5688" gradientUnits="userSpaceOnUse">
<stop stop-color="#FFF06B"/>
<stop offset="1" stop-color="#FFA236"/>
</linearGradient>
<linearGradient id="paint3_linear_503_32" x1="54.3818" y1="42.7498" x2="59.8812" y2="52.5688" gradientUnits="userSpaceOnUse">
<stop stop-color="#FFF06B"/>
<stop offset="1" stop-color="#FFA236"/>
</linearGradient>
<linearGradient id="paint4_linear_503_32" x1="90.3818" y1="36.7498" x2="95.8812" y2="46.5688" gradientUnits="userSpaceOnUse">
<stop stop-color="#FFF06B"/>
<stop offset="1" stop-color="#FFA236"/>
</linearGradient>
<linearGradient id="paint5_linear_503_32" x1="-7.61817" y1="48.7498" x2="-2.11877" y2="58.5688" gradientUnits="userSpaceOnUse">
<stop stop-color="#FFF06B"/>
<stop offset="1" stop-color="#FFA236"/>
</linearGradient>
<linearGradient id="paint6_linear_503_32" x1="15.3818" y1="85.7498" x2="20.8812" y2="95.5688" gradientUnits="userSpaceOnUse">
<stop stop-color="#FFF06B"/>
<stop offset="1" stop-color="#FFA236"/>
</linearGradient>
<linearGradient id="paint7_linear_503_32" x1="81.3818" y1="87.7498" x2="86.8812" y2="97.5688" gradientUnits="userSpaceOnUse">
<stop stop-color="#FFF06B"/>
<stop offset="1" stop-color="#FFA236"/>
</linearGradient>
<clipPath id="clip0_503_32">
<rect width="100" height="100" fill="white"/>
</clipPath>
<clipPath id="clip1_503_32">
<rect width="11" height="10" fill="white" transform="translate(8 7)"/>
</clipPath>
<clipPath id="clip2_503_32">
<rect width="11" height="10" fill="white" transform="translate(66 12)"/>
</clipPath>
<clipPath id="clip3_503_32">
<rect width="11" height="10" fill="white" transform="translate(52 42)"/>
</clipPath>
<clipPath id="clip4_503_32">
<rect width="11" height="10" fill="white" transform="translate(88 36)"/>
</clipPath>
<clipPath id="clip5_503_32">
<rect width="11" height="10" fill="white" transform="translate(-10 48)"/>
</clipPath>
<clipPath id="clip6_503_32">
<rect width="11" height="10" fill="white" transform="translate(13 85)"/>
</clipPath>
<clipPath id="clip7_503_32">
<rect width="11" height="10" fill="white" transform="translate(79 87)"/>
</clipPath>
</defs>
</svg>
