<svg width="100" height="100" viewBox="0 0 100 100" fill="none" xmlns="http://www.w3.org/2000/svg">
<g clip-path="url(#clip0_503_71)">
<path d="M26.7051 12.9978C26.5018 12.6596 26.3678 12.2843 26.311 11.8938C26.2541 11.5033 26.2756 11.1053 26.3741 10.7232C26.4725 10.341 26.6461 9.98232 26.8846 9.66791C27.123 9.3535 27.4217 9.08968 27.7632 8.89184C28.1046 8.694 28.482 8.56609 28.8734 8.51555C29.2648 8.46501 29.6623 8.49286 30.0428 8.59747C30.4233 8.70208 30.7792 8.88137 31.0897 9.12488C31.4003 9.3684 31.6592 9.67128 31.8516 10.0159L35.6811 16.623C36.0826 17.3065 36.1961 18.1215 35.9967 18.8886C35.7973 19.6558 35.3013 20.3123 34.6178 20.7137C33.9343 21.1152 33.1194 21.2287 32.3522 21.0293C31.5851 20.8299 30.9285 20.3339 30.5271 19.6504L26.7051 12.9978ZM50.5076 22.8367C56.6758 22.8414 62.6515 24.9846 67.4168 28.9011C72.1821 32.8176 75.4421 38.2652 76.6414 44.3157C77.8407 50.3662 76.9052 56.6453 73.9942 62.0834C71.0832 67.5215 66.3768 71.7821 60.6768 74.1394C54.9768 76.4967 48.6358 76.8048 42.7341 75.0113C36.8324 73.2178 31.735 69.4335 28.3105 64.3033C24.8859 59.1731 23.346 53.0142 23.953 46.8759C24.5601 40.7377 27.2766 34.9997 31.6396 30.6396C34.1138 28.1594 37.0537 26.1926 40.2904 24.8522C43.527 23.5118 46.9967 22.8242 50.5 22.8291L50.5076 22.8367ZM48.1311 6.02734C48.1107 5.62261 48.1728 5.21795 48.3137 4.83797C48.4545 4.45798 48.6712 4.1106 48.9504 3.81693C49.2297 3.52325 49.5657 3.28942 49.9381 3.12964C50.3106 2.96986 50.7116 2.88747 51.1168 2.88747C51.5221 2.88747 51.9231 2.96986 52.2955 3.12964C52.6679 3.28942 53.004 3.52325 53.2832 3.81693C53.5625 4.1106 53.7791 4.45798 53.92 4.83797C54.0608 5.21795 54.1229 5.62261 54.1025 6.02734V13.6411C54.1229 14.0458 54.0608 14.4505 53.92 14.8305C53.7791 15.2105 53.5625 15.5579 53.2832 15.8515C53.004 16.1452 52.6679 16.379 52.2955 16.5388C51.9231 16.6986 51.5221 16.781 51.1168 16.781C50.7116 16.781 50.3106 16.6986 49.9381 16.5388C49.5657 16.379 49.2297 16.1452 48.9504 15.8515C48.6712 15.5579 48.4545 15.2105 48.3137 14.8305C48.1728 14.4505 48.1107 14.0458 48.1311 13.6411V6.02734ZM70.2156 10.644C70.3967 10.2822 70.6497 9.96116 70.9592 9.7005C71.2687 9.43984 71.6281 9.24506 72.0154 9.12808C72.4027 9.0111 72.8099 8.97438 73.2119 9.02016C73.6139 9.06594 74.0024 9.19327 74.3535 9.39435C74.7046 9.59543 75.011 9.86604 75.2539 10.1896C75.4969 10.5132 75.6712 10.8829 75.7663 11.2762C75.8615 11.6695 75.8753 12.078 75.8071 12.4768C75.7389 12.8757 75.59 13.2564 75.3696 13.5957L71.54 20.2256C71.3506 20.5742 71.0933 20.8813 70.7834 21.129C70.4735 21.3767 70.1171 21.5598 69.7353 21.6677C69.3535 21.7755 68.954 21.8059 68.5603 21.7571C68.1666 21.7082 67.7866 21.5811 67.4428 21.3832C67.099 21.1852 66.7982 20.9205 66.5582 20.6046C66.3182 20.2887 66.1438 19.928 66.0454 19.5437C65.9469 19.1593 65.9263 18.7592 65.9848 18.3668C66.0433 17.9744 66.1797 17.5977 66.386 17.2588L70.2156 10.6365V10.644ZM87.0022 25.7051C87.6857 25.3097 88.4982 25.2019 89.2611 25.4056C90.024 25.6093 90.6748 26.1077 91.0702 26.7911C91.4656 27.4746 91.5733 28.2872 91.3697 29.0501C91.166 29.813 90.6676 30.4637 89.9841 30.8591L83.3618 34.6887C83.0234 34.8875 82.6491 35.0177 82.2604 35.0718C81.8717 35.126 81.4761 35.103 81.0962 35.0043C80.7164 34.9055 80.3597 34.7329 80.0465 34.4963C79.7334 34.2597 79.4699 33.9638 79.2711 33.6254C79.0723 33.2869 78.9422 32.9127 78.888 32.524C78.8339 32.1352 78.8568 31.7396 78.9556 31.3598C79.0543 30.9799 79.2269 30.6232 79.4635 30.3101C79.7001 29.9969 79.9961 29.7334 80.3345 29.5347L87.0022 25.7051ZM94.0105 47.1387C94.4152 47.1183 94.8199 47.1804 95.1999 47.3213C95.5799 47.4621 95.9272 47.6787 96.2209 47.958C96.5146 48.2372 96.7484 48.5733 96.9082 48.9457C97.068 49.3181 97.1504 49.7191 97.1504 50.1244C97.1504 50.5296 97.068 50.9307 96.9082 51.3031C96.7484 51.6755 96.5146 52.0115 96.2209 52.2908C95.9272 52.5701 95.5799 52.7867 95.1999 52.9275C94.8199 53.0684 94.4152 53.1305 94.0105 53.1101H86.3589C85.9542 53.1305 85.5495 53.0684 85.1695 52.9275C84.7895 52.7867 84.4421 52.5701 84.1485 52.2908C83.8548 52.0115 83.621 51.6755 83.4612 51.3031C83.3014 50.9307 83.219 50.5296 83.219 50.1244C83.219 49.7191 83.3014 49.3181 83.4612 48.9457C83.621 48.5733 83.8548 48.2372 84.1485 47.958C84.4421 47.6787 84.7895 47.4621 85.1695 47.3213C85.5495 47.1804 85.9542 47.1183 86.3589 47.1387H94.0105ZM89.356 69.2231C89.7124 69.4078 90.0278 69.6627 90.2831 69.9724C90.5384 70.2822 90.7283 70.6405 90.8415 71.0256C90.9547 71.4107 90.9888 71.8148 90.9416 72.2134C90.8945 72.6121 90.7671 72.9971 90.5673 73.3452C90.3674 73.6933 90.0991 73.9974 89.7786 74.239C89.4581 74.4807 89.092 74.655 88.7023 74.7515C88.3126 74.8479 87.9075 74.8644 87.5112 74.8001C87.115 74.7358 86.7359 74.5919 86.3967 74.3772L79.7668 70.5476C79.4084 70.3648 79.0908 70.1113 78.8333 69.8022C78.5757 69.4932 78.3835 69.1351 78.2683 68.7496C78.1531 68.3642 78.1172 67.9594 78.163 67.5597C78.2087 67.16 78.3351 66.7737 78.5344 66.4242C78.7338 66.0748 79.0019 65.7694 79.3227 65.5265C79.6434 65.2837 80.0101 65.1084 80.4005 65.0114C80.7909 64.9143 81.197 64.8975 81.5941 64.9619C81.9912 65.0263 82.3712 65.1705 82.7109 65.386L89.3333 69.2156L89.356 69.2231ZM74.3025 86.0022C74.6979 86.6857 74.8056 87.4982 74.602 88.2611C74.3983 89.024 73.8999 89.6748 73.2164 90.0702C72.533 90.4656 71.7204 90.5733 70.9575 90.3697C70.1946 90.166 69.5439 89.6676 69.1484 88.9841L65.3037 82.3618C65.1049 82.0234 64.9748 81.6491 64.9206 81.2604C64.8665 80.8717 64.8894 80.4761 64.9882 80.0962C65.0869 79.7164 65.2595 79.3597 65.4961 79.0465C65.7327 78.7334 66.0286 78.4699 66.3671 78.2711C67.0505 77.8697 67.8655 77.7562 68.6326 77.9556C69.0125 78.0543 69.3692 78.2269 69.6823 78.4635C69.9955 78.7001 70.259 78.9961 70.4578 79.3345L74.2874 85.9644L74.3025 86.0022ZM52.8689 93.0105C52.8893 93.4152 52.8272 93.8199 52.6863 94.1999C52.5455 94.5799 52.3288 94.9272 52.0496 95.2209C51.7703 95.5146 51.4343 95.7484 51.0619 95.9082C50.6894 96.068 50.2884 96.1504 49.8832 96.1504C49.4779 96.1504 49.0769 96.068 48.7045 95.9082C48.3321 95.7484 47.996 95.5146 47.7168 95.2209C47.4375 94.9272 47.2209 94.5799 47.08 94.1999C46.9392 93.8199 46.8771 93.4152 46.8975 93.0105V85.3589C46.8771 84.9542 46.9392 84.5495 47.08 84.1695C47.2209 83.7895 47.4375 83.4421 47.7168 83.1485C47.996 82.8548 48.3321 82.621 48.7045 82.4612C49.0769 82.3014 49.4779 82.219 49.8832 82.219C50.2884 82.219 50.6894 82.3014 51.0619 82.4612C51.4343 82.621 51.7703 82.8548 52.0496 83.1485C52.3288 83.4421 52.5455 83.7895 52.6863 84.1695C52.8272 84.5495 52.8893 84.9542 52.8689 85.3589V93.0105ZM30.7844 88.356C30.3743 89.0037 29.73 89.468 28.9859 89.6521C28.2417 89.8363 27.4552 89.726 26.7904 89.3443C26.1256 88.9626 25.6338 88.339 25.4177 87.6035C25.2016 86.868 25.2778 86.0774 25.6304 85.3967L29.46 78.7668C29.6381 78.4007 29.8894 78.0749 30.1986 77.8099C30.5077 77.5448 30.8679 77.346 31.257 77.2258C31.6461 77.1056 32.0557 77.0666 32.4604 77.1112C32.8652 77.1558 33.2565 77.283 33.6101 77.485C33.9636 77.687 34.272 77.9594 34.516 78.2854C34.76 78.6114 34.9345 78.984 35.0286 79.3802C35.1227 79.7764 35.1345 80.1877 35.0632 80.5886C34.9919 80.9895 34.839 81.3715 34.614 81.7109L30.7844 88.3333V88.356ZM13.9978 73.3025C13.6594 73.4983 13.2857 73.6255 12.8981 73.6769C12.5105 73.7283 12.1166 73.7028 11.7389 73.602C11.3611 73.5011 11.0069 73.3269 10.6965 73.0891C10.3861 72.8514 10.1256 72.5549 9.92981 72.2164C9.73401 71.878 9.60679 71.5043 9.5554 71.1168C9.50402 70.7292 9.52948 70.3353 9.63033 69.9575C9.73118 69.5798 9.90544 69.2256 10.1432 68.9152C10.3809 68.6048 10.6774 68.3442 11.0159 68.1484L17.623 64.3037C17.9625 64.1049 18.3377 63.975 18.7273 63.9212C19.117 63.8674 19.5134 63.8909 19.894 63.9904C20.2745 64.0898 20.6318 64.2633 20.9453 64.5008C21.2588 64.7383 21.5225 65.0352 21.7213 65.3746C21.9201 65.7141 22.0501 66.0893 22.1038 66.4789C22.1576 66.8686 22.1341 67.265 22.0346 67.6456C21.9352 68.0261 21.7618 68.3834 21.5242 68.6969C21.2867 69.0104 20.9898 69.2741 20.6504 69.4729L14.0205 73.3025H13.9978ZM7.02734 51.8689C6.6226 51.8893 6.21795 51.8272 5.83796 51.6863C5.45798 51.5455 5.11059 51.3288 4.81692 51.0496C4.52325 50.7703 4.28942 50.4343 4.12964 50.0619C3.96986 49.6894 3.88747 49.2884 3.88747 48.8832C3.88747 48.4779 3.96986 48.0769 4.12964 47.7045C4.28942 47.3321 4.52325 46.996 4.81692 46.7168C5.11059 46.4375 5.45798 46.2209 5.83796 46.08C6.21795 45.9392 6.6226 45.8771 7.02734 45.8975H14.6411C15.0458 45.8771 15.4505 45.9392 15.8305 46.08C16.2105 46.2209 16.5579 46.4375 16.8515 46.7168C17.1452 46.996 17.379 47.3321 17.5388 47.7045C17.6986 48.0769 17.781 48.4779 17.781 48.8832C17.781 49.2884 17.6986 49.6894 17.5388 50.0619C17.379 50.4343 17.1452 50.7703 16.8515 51.0496C16.5579 51.3288 16.2105 51.5455 15.8305 51.6863C15.4505 51.8272 15.0458 51.8893 14.6411 51.8689H7.02734ZM11.644 29.7844C11.2822 29.6033 10.9612 29.3503 10.7005 29.0408C10.4398 28.7313 10.2451 28.3719 10.1281 27.9846C10.0111 27.5973 9.97437 27.1901 10.0202 26.7881C10.0659 26.3861 10.1933 25.9976 10.3943 25.6465C10.5954 25.2954 10.866 24.989 11.1896 24.7461C11.5132 24.5031 11.8829 24.3288 12.2762 24.2337C12.6695 24.1385 13.078 24.1247 13.4768 24.1929C13.8757 24.2611 14.2564 24.41 14.5957 24.6304L21.2256 28.46C21.5742 28.6494 21.8813 28.9067 22.129 29.2166C22.3767 29.5265 22.5598 29.8829 22.6677 30.2647C22.7755 30.6465 22.8059 31.046 22.7571 31.4397C22.7082 31.8334 22.5811 32.2134 22.3832 32.5572C22.1852 32.901 21.9205 33.2018 21.6046 33.4418C21.2887 33.6818 20.928 33.8562 20.5436 33.9546C20.1593 34.0531 19.7592 34.0737 19.3668 34.0152C18.9744 33.9567 18.5977 33.8203 18.2588 33.614L11.644 29.7844Z" fill="url(#paint0_linear_503_71)"/>
</g>
<defs>
<linearGradient id="paint0_linear_503_71" x1="24.098" y1="9.88219" x2="77.8399" y2="97.0992" gradientUnits="userSpaceOnUse">
<stop stop-color="#FFF06B"/>
<stop offset="1" stop-color="#FFA236"/>
</linearGradient>
<clipPath id="clip0_503_71">
<rect width="93" height="93" fill="white" transform="translate(4 3)"/>
</clipPath>
</defs>
</svg>
